<svg width="332" height="24" viewBox="0 0 332 24" fill="none" xmlns="http://www.w3.org/2000/svg">
<path fill-rule="evenodd" clip-rule="evenodd" d="M15.6209 0.260254L10.9453 14.2231L6.24307 0.260254H2.80054L0 18.0711H3.41768L5.11269 6.18825L9.17235 18.0711H12.5895L16.5458 6.47454L18.3441 18.0711H21.864L19.0381 0.260254H15.6209Z" fill="#222222"/>
<path fill-rule="evenodd" clip-rule="evenodd" d="M32.6011 4.47225L29.9801 11.3368H35.2215L32.6011 4.47225ZM41.4646 18.0711H37.8166L36.4033 14.4048H28.7984L27.3857 18.0711H23.9172L30.9564 0.260254H34.4248L41.4646 18.0711Z" fill="#222222"/>
<path fill-rule="evenodd" clip-rule="evenodd" d="M55.3228 9.17854C55.3228 7.35854 54.783 5.95854 53.704 4.97911C52.625 3.99968 51.0836 3.50997 49.0798 3.50997H47.5124V14.8465H49.0798C51.0661 14.8465 52.6036 14.3528 53.6911 13.3648C54.7791 12.3768 55.3228 10.9814 55.3228 9.17854M48.951 18.0711H43.9925V0.260254H48.951C52.0683 0.260254 54.5132 1.04883 56.2861 2.62597C58.059 4.20368 58.9455 6.38768 58.9455 9.17854C58.9455 11.9523 58.059 14.1283 56.2861 15.7048C54.5132 17.2825 52.0683 18.0711 48.951 18.0711" fill="#222222"/>
<path fill-rule="evenodd" clip-rule="evenodd" d="M72.0736 14.8986H79.4476V18.0712H68.5537V0.259766H72.0736V14.8986Z" fill="#222222"/>
<path fill-rule="evenodd" clip-rule="evenodd" d="M89.7907 15.0549C91.3152 15.0549 92.5867 14.4954 93.6059 13.3777C94.625 12.2594 95.1349 10.86 95.1349 9.17829C95.1349 7.49714 94.625 6.09314 93.6059 4.96629C92.5867 3.83943 91.3152 3.276 89.7907 3.276C88.2662 3.276 86.9941 3.83943 85.9755 4.96629C84.9558 6.09314 84.4471 7.49714 84.4471 9.17829C84.4471 10.86 84.9558 12.2594 85.9755 13.3777C86.9941 14.4954 88.2662 15.0549 89.7907 15.0549M89.7907 18.3309C87.238 18.3309 85.106 17.46 83.3935 15.7177C81.6804 13.9754 80.8244 11.796 80.8244 9.17829C80.8244 6.56114 81.6804 4.37714 83.3935 2.62629C85.106 0.875429 87.238 0 89.7907 0C92.3428 0 94.4754 0.875429 96.1885 2.62629C97.9004 4.37714 98.7575 6.56114 98.7575 9.17829C98.7575 11.796 97.9004 13.9754 96.1885 15.7177C94.4754 17.46 92.3428 18.3309 89.7907 18.3309" fill="#222222"/>
<path fill-rule="evenodd" clip-rule="evenodd" d="M110.08 3.276C108.555 3.276 107.283 3.83943 106.265 4.96629C105.245 6.09314 104.736 7.49714 104.736 9.17829C104.736 10.86 105.245 12.2594 106.265 13.3777C107.283 14.4954 108.555 15.0549 110.08 15.0549C110.919 15.0549 111.69 14.8857 112.392 14.5474C113.095 14.2097 113.788 13.6766 114.473 12.9486L116.683 15.3411C115.723 16.3463 114.696 17.096 113.6 17.5897C112.503 18.084 111.33 18.3309 110.08 18.3309C107.527 18.3309 105.395 17.46 103.683 15.7177C101.97 13.9754 101.114 11.796 101.114 9.17829C101.114 6.56114 101.97 4.37714 103.683 2.62571C105.395 0.875429 107.527 0 110.08 0C111.279 0 112.418 0.233714 113.497 0.701714C114.576 1.16971 115.552 1.85486 116.426 2.756L114.268 5.148C113.651 4.524 112.996 4.056 112.302 3.744C111.609 3.432 110.868 3.276 110.08 3.276" fill="#222222"/>
<path fill-rule="evenodd" clip-rule="evenodd" d="M126.641 4.47225L124.02 11.3368H129.262L126.641 4.47225ZM135.505 18.0711H131.857L130.444 14.4048H122.839L121.426 18.0711H117.957L124.997 0.260254H128.465L135.505 18.0711Z" fill="#222222"/>
<path fill-rule="evenodd" clip-rule="evenodd" d="M139.705 3.43225H134.541V0.260254H148.389V3.43225H143.225V18.0711H139.705V3.43225Z" fill="#222222"/>
<path fill-rule="evenodd" clip-rule="evenodd" d="M151 18.0711H154.519V0.260254H151V18.0711Z" fill="#222222"/>
<path fill-rule="evenodd" clip-rule="evenodd" d="M193.87 18.0711H190.478L182.668 6.10997V18.0711H179.328V0.260254H182.719L190.53 12.2728V0.260254H193.87V18.0711Z" fill="#222222"/>
<path fill-rule="evenodd" clip-rule="evenodd" d="M216.144 18.0711H212.727L208.668 6.18825L206.972 18.0711H203.555L206.355 0.260254H209.798L214.5 14.2231L219.176 0.260254H222.593L225.419 18.0711H221.899L220.101 6.47454L216.144 18.0711Z" fill="#222222"/>
<path fill-rule="evenodd" clip-rule="evenodd" d="M236.156 4.47225L233.535 11.3368H238.777L236.156 4.47225ZM245.019 18.0711H241.371L239.958 14.4048H232.354L230.94 18.0711H227.472L234.512 0.260254H237.98L245.019 18.0711Z" fill="#222222"/>
<path fill-rule="evenodd" clip-rule="evenodd" d="M262.09 18.0711H258.698L250.887 6.10997V18.0711H247.548V0.260254H250.939L258.749 12.2728V0.260254H262.09V18.0711Z" fill="#222222"/>
<path fill-rule="evenodd" clip-rule="evenodd" d="M273.301 4.47225L270.68 11.3368H275.922L273.301 4.47225ZM282.165 18.0711H278.516L277.104 14.4048H269.499L268.086 18.0711H264.617L271.657 0.260254H275.125L282.165 18.0711Z" fill="#222222"/>
<path fill-rule="evenodd" clip-rule="evenodd" d="M300.244 9.49029C300.244 12.004 299.438 14.1057 297.829 15.796C296.218 17.4863 294.215 18.3309 291.817 18.3309C289.265 18.3309 287.132 17.46 285.42 15.7177C283.707 13.9754 282.85 11.796 282.85 9.17829C282.85 6.56114 283.707 4.37714 285.42 2.62571C287.132 0.875429 289.265 0 291.817 0C293.016 0 294.155 0.233714 295.234 0.701714C296.313 1.16971 297.29 1.85486 298.162 2.756L296.004 5.148C295.388 4.524 294.733 4.056 294.04 3.744C293.346 3.432 292.605 3.276 291.817 3.276C290.293 3.276 289.021 3.83943 288.001 4.96629C286.983 6.09314 286.473 7.49714 286.473 9.17829C286.473 10.86 286.983 12.2594 288.001 13.3777C289.021 14.4954 290.293 15.0549 291.817 15.0549C292.964 15.0549 293.958 14.7389 294.797 14.1057C295.636 13.4731 296.218 12.6103 296.545 11.5183H291.432V8.34629H300.193C300.209 8.48514 300.223 8.65829 300.232 8.86629C300.239 9.07429 300.244 9.28229 300.244 9.49029" fill="#222222"/>
<path fill-rule="evenodd" clip-rule="evenodd" d="M314.432 18.0711H303.358V0.260254H314.432V3.43225H306.878V7.38425H313.763V10.5568H306.878V14.8985H314.432V18.0711Z" fill="#222222"/>
<path fill-rule="evenodd" clip-rule="evenodd" d="M326.933 5.77225C326.933 5.0614 326.689 4.49397 326.201 4.0694C325.713 3.64425 325.049 3.43225 324.21 3.43225H321.718V8.11225H324.21C325.049 8.11225 325.713 7.90025 326.201 7.47511C326.689 7.05054 326.933 6.48311 326.933 5.77225V5.77225ZM321.718 18.0711H318.275V0.260254H324.081C326 0.260254 327.545 0.749968 328.719 1.72883C329.892 2.70825 330.479 4.00425 330.479 5.61625C330.479 6.7254 330.213 7.68768 329.682 8.50254C329.151 9.3174 328.389 9.9414 327.396 10.3745L331.507 18.0711H327.781L324.21 11.2585H321.718V18.0711Z" fill="#222222"/>
<path fill-rule="evenodd" clip-rule="evenodd" d="M166.924 14.844C163.766 14.844 161.198 12.2451 161.198 9.04914C161.198 5.85429 163.766 3.25543 166.924 3.25543C170.08 3.25543 172.649 5.85429 172.649 9.04914C172.649 12.2451 170.08 14.844 166.924 14.844M174.913 4.96914C173.4 1.94571 170.512 0.0897143 167.187 0.00342857H167.186L166.924 0L166.659 0.00342857C163.335 0.0897143 160.447 1.94571 158.934 4.96857C157.394 8.04343 157.632 11.5634 159.568 14.3851L165.361 22.8269C165.716 23.3446 166.3 23.6537 166.923 23.6537H166.924C167.547 23.6537 168.13 23.3446 168.485 22.8269L174.279 14.3851C176.216 11.5634 176.453 8.04343 174.913 4.96914" fill="#0155FC"/>
</svg>
